<?xml version="1.0" encoding="utf-8"?>
<!-- Generator: Adobe Illustrator 25.2.3, SVG Export Plug-In . SVG Version: 6.00 Build 0)  -->
<svg version="1.1" id="Layer_1" xmlns="http://www.w3.org/2000/svg" xmlns:xlink="http://www.w3.org/1999/xlink" x="0px" y="0px"
	 viewBox="0 0 155 155" style="enable-background:new 0 0 155 155;" xml:space="preserve">
<style type="text/css">
	.st0{fill:#FFFFFF;}
</style>
<path class="st0" d="M35.8,149.8c-1.7,0-3.3-0.5-4.7-1.5c-2.6-1.9-3.9-5.2-3.1-8.3l9.8-43.1L4.5,67.8c-2.4-2.1-3.4-5.5-2.4-8.6
	c1-3.1,3.7-5.3,6.9-5.6l43.9-4L70.4,9.1c1.3-3,4.2-4.9,7.4-4.9c3.2,0,6.1,1.9,7.4,4.9l17.3,40.6l43.9,4c3.2,0.3,6,2.5,7,5.6
	c1,3.1,0.1,6.5-2.4,8.6l-33.2,29.1l9.8,43.1c0.7,3.2-0.5,6.4-3.1,8.3c-2.6,1.9-6.1,2-8.9,0.4l-37.8-22.6l-37.8,22.6
	C38.7,149.4,37.2,149.8,35.8,149.8z M77.8,116.3c1.4,0,2.9,0.4,4.1,1.1l35.7,21.4l-9.2-40.7c-0.7-2.9,0.3-5.9,2.6-7.9l31.3-27.5
	l-41.4-3.8c-3-0.3-5.5-2.1-6.7-4.9L77.8,15.9L61.4,54.2c-1.2,2.7-3.7,4.6-6.7,4.9l-41.4,3.8l31.3,27.5c2.2,2,3.2,5,2.6,7.9
	l-9.2,40.7l35.7-21.4C74.9,116.7,76.3,116.3,77.8,116.3z M52.7,50.5C52.7,50.5,52.7,50.5,52.7,50.5L52.7,50.5z M102.9,50.4
	L102.9,50.4C102.9,50.4,102.9,50.4,102.9,50.4z"/>
</svg>
